<?xml version="1.0" encoding="UTF-8" standalone="no"?>
<!-- Created with Inkscape (http://www.inkscape.org/) -->

<svg
   xmlns:dc="http://purl.org/dc/elements/1.1/"
   xmlns:cc="http://creativecommons.org/ns#"
   xmlns:rdf="http://www.w3.org/1999/02/22-rdf-syntax-ns#"
   xmlns:svg="http://www.w3.org/2000/svg"
   xmlns="http://www.w3.org/2000/svg"
   xmlns:sodipodi="http://sodipodi.sourceforge.net/DTD/sodipodi-0.dtd"
   xmlns:inkscape="http://www.inkscape.org/namespaces/inkscape"
   width="1052.3622"
   height="744.09448"
   id="svg2"
   version="1.1"
   inkscape:version="0.48.0 r9654"
   sodipodi:docname="pre-diseño.svg">
  <defs
     id="defs4" />
  <sodipodi:namedview
     id="base"
     pagecolor="#ffffff"
     bordercolor="#666666"
     borderopacity="1.0"
     inkscape:pageopacity="0.0"
     inkscape:pageshadow="2"
     inkscape:zoom="0.98994949"
     inkscape:cx="513.05508"
     inkscape:cy="749.24929"
     inkscape:document-units="px"
     inkscape:current-layer="layer1"
     showgrid="false"
     inkscape:window-width="1280"
     inkscape:window-height="961"
     inkscape:window-x="-3"
     inkscape:window-y="-3"
     inkscape:window-maximized="1"
     showguides="true"
     inkscape:guide-bbox="true" />
  <metadata
     id="metadata7">
    <rdf:RDF>
      <cc:Work
         rdf:about="">
        <dc:format>image/svg+xml</dc:format>
        <dc:type
           rdf:resource="http://purl.org/dc/dcmitype/StillImage" />
        <dc:title></dc:title>
      </cc:Work>
    </rdf:RDF>
  </metadata>
  <g
     inkscape:label="Capa 1"
     inkscape:groupmode="layer"
     id="layer1"
     transform="translate(0,-308.2677)">
    <path
       style="fill:#008000;fill-opacity:1;fill-rule:nonzero;stroke:#666666;stroke-width:0.33415967;stroke-linecap:round;stroke-linejoin:round;stroke-miterlimit:4;stroke-opacity:1;stroke-dasharray:none"
       d="m 8.1248968,311.31771 -3.3880082,1.98407 c 2.2301654,2.54015 4.6346842,4.91725 7.0428794,7.28654 2.594809,2.54833 5.122988,5.16563 7.704237,7.72744 0.07232,0.0746 0.147116,0.14687 0.220453,0.22045 -1.488804,1.75264 -3.148642,3.37692 -4.78034,4.98919 -2.600594,2.56149 -5.1596819,5.14893 -7.8550733,7.61142 -0.6131051,0.58597 -1.277815,1.1163 -1.937662,1.64759 L 8.39176,344.8265 c 0.6273963,-0.56162 1.2469317,-1.13528 1.833237,-1.74041 2.58125,-2.56181 5.109428,-5.16751 7.704238,-7.71585 2.408193,-2.36928 4.824316,-4.74638 7.054482,-7.28653 l -1.125469,-0.66136 c -0.412317,-0.33996 -0.819975,-0.68625 -1.206691,-1.05586 -2.695391,-2.46248 -5.266078,-5.06153 -7.866673,-7.62301 -2.362148,-2.33403 -4.779676,-4.67262 -6.6599872,-7.42577 z"
       id="path3024"
       inkscape:connector-curvature="0" />
    <path
       style="fill:#000000;stroke:#000000;stroke-width:1.50000000000000000;stroke-linecap:round;stroke-linejoin:miter;stroke-opacity:1;stroke-miterlimit:4;stroke-dasharray:none"
       d="m 0,43.553692 1052.579,0"
       id="path3047"
       inkscape:connector-curvature="0"
       transform="translate(0,308.2677)" />
    <text
       xml:space="preserve"
       style="font-size:29.16591644px;font-style:normal;font-variant:normal;font-weight:normal;font-stretch:normal;text-align:start;line-height:125%;letter-spacing:0px;word-spacing:0px;writing-mode:lr-tb;text-anchor:start;fill:#000000;fill-opacity:1;stroke:none;font-family:Telegrafico;-inkscape-font-specification:Telegrafico"
       x="31.213427"
       y="336.07257"
       id="text3817"
       sodipodi:linespacing="125%"><tspan
         sodipodi:role="line"
         id="tspan3819"
         x="31.213427"
         y="336.07257">Inicio</tspan></text>
    <rect
       style="fill:#008000;fill-opacity:1;fill-rule:nonzero;stroke:none"
       id="rect3821"
       width="97.28994"
       height="42.426407"
       x="955.03644"
       y="308.63739" />
    <path
       style="fill:#666666;fill-opacity:1;stroke:#333333;stroke-width:0.47855529;stroke-opacity:1"
       d="m 1034.5017,317.5263 c -0.4248,-0.13891 -0.8257,-0.31538 -1.2684,-0.4085 -0.8314,-0.17488 -1.6984,-0.2795 -2.58,-0.2795 -0.8817,0 -1.7486,0.10462 -2.58,0.2795 -0.01,0.002 -0.015,-0.002 -0.022,0 l 0.774,3.52599 0.2795,0.0215 c -1.3937,0.268 -2.6683,0.85233 -3.7624,1.6985 l 0.2794,-0.3225 -1.978,-3.00999 c -0.04,0.0268 -0.09,0.0372 -0.129,0.0645 -0.587,0.40773 -1.1219,0.8762 -1.634,1.37599 l -0.602,0.645 c -0.43,0.48118 -0.847,0.96179 -1.2039,1.505 -0.2165,0.3293 -0.3718,0.70385 -0.559,1.05349 l 3.2249,1.591 0.344,-0.387 c -0.7425,1.2096 -1.2476,2.60631 -1.3974,4.10649 l -0.043,-0.9245 -3.5044,-0.731 c -0.1674,0.84084 -0.2553,1.71049 -0.258,2.6015 l 0,0.129 c 0.01,0.87576 0.093,1.73143 0.258,2.5585 0.062,0.31256 0.196,0.59895 0.2794,0.90299 l 3.44,-1.13949 -0.022,-0.4945 c 0.236,1.1995 0.6848,2.323 1.3115,3.31099 l -0.064,-0.086 -3.2466,1.74149 c 0.088,0.14567 0.1434,0.30971 0.2366,0.4515 0.3885,0.59125 0.8368,1.13817 1.3114,1.6555 l 0.5376,0.559 c 0.4997,0.48323 1.0204,0.93683 1.591,1.33299 0.216,0.15001 0.4627,0.25051 0.688,0.387 l 1.849,-2.96699 -0.387,-0.43 c 1.1554,0.81163 2.5061,1.33652 3.956,1.5265 l -0.817,0.043 -0.731,3.41849 c 0.8313,0.17488 1.6982,0.258 2.58,0.258 0.8816,0 1.7485,-0.0831 2.58,-0.258 0.3446,-0.0725 0.6549,-0.22206 0.989,-0.3225 l -1.0966,-3.28949 -0.43,0.0215 c 1.0777,-0.24067 2.0891,-0.67042 2.9886,-1.2685 l -0.1506,0.1505 1.849,2.96699 c 0.1325,-0.0849 0.2794,-0.14682 0.4085,-0.2365 0.6795,-0.47184 1.3142,-0.99707 1.892,-1.59099 0.5778,-0.59393 1.1104,-1.2581 1.5695,-1.9565 0.1425,-0.21674 0.2355,-0.46232 0.3655,-0.688 l -3.1175,-1.634 c 0.4262,-0.70979 0.7756,-1.48147 1.0105,-2.30049 l 0,0.086 3.2895,1.07499 c 0.123,-0.40792 0.2811,-0.80161 0.3655,-1.22549 0.1701,-0.8546 0.258,-1.73821 0.258,-2.6445 0,-0.77348 -0.09,-1.52072 -0.215,-2.25749 l -3.44,0.73099 c -0.1929,-1.23731 -0.6194,-2.39069 -1.2255,-3.41848 l 0.387,0.43 3.0315,-1.505 c -0.2268,-0.44918 -0.4355,-0.91605 -0.7095,-1.333 -0.4591,-0.69841 -0.9917,-1.34108 -1.5695,-1.935 -0.5134,-0.52779 -1.0825,-0.98684 -1.677,-1.41899 l -1.9565,2.96699 c -0.8265,-0.61068 -1.7531,-1.07751 -2.752,-1.376 l 0.086,0 1.118,-3.33249 z"
       id="path4132"
       inkscape:connector-curvature="0" />
    <path
       style="fill:#666666;fill-opacity:1;fill-rule:nonzero;stroke:#333333;stroke-width:0.58568329;stroke-linecap:round;stroke-linejoin:miter;stroke-miterlimit:4;stroke-opacity:1;stroke-dasharray:none"
       d="m 984.79482,315.5462 c -5.47056,0 -9.90439,3.01608 -9.90439,6.74204 0,1.96027 1.23806,3.72352 3.19814,4.95613 l -0.0282,0 -4.19845,4.62855 -0.0846,10.83164 22.93645,-0.0528 0,-10.70484 -4.83239,-4.76592 -0.28179,0 c 1.90237,-1.22936 3.09953,-2.96564 3.09953,-4.89273 0,-3.72595 -4.43383,-6.74203 -9.90439,-6.74203 z"
       id="path4154"
       inkscape:connector-curvature="0" />
    <path
       style="fill:#008000;fill-opacity:1;fill-rule:nonzero;stroke:#000000;stroke-width:1;stroke-linecap:round;stroke-linejoin:miter;stroke-miterlimit:4;stroke-opacity:1;stroke-dasharray:none"
       id="path4161"
       d="m 227.42902,404.31489 29.62233,-52.27881 20.07379,-0.3689 -27.68097,52.59998 z"
       inkscape:connector-curvature="0"
       sodipodi:nodetypes="ccccc" />
    <path
       style="fill:none;stroke:#000000;stroke-width:1px;stroke-linecap:butt;stroke-linejoin:miter;stroke-opacity:1"
       d="m 227.28432,404.60186 -227.78939627,0.75762 0,0 0,-0.75762"
       id="path4163"
       inkscape:connector-curvature="0"
       sodipodi:nodetypes="cccc" />
    <path
       style="fill:#008000;fill-opacity:1;fill-rule:nonzero;stroke:#666666;stroke-width:0.33415967;stroke-linecap:round;stroke-linejoin:round;stroke-miterlimit:4;stroke-opacity:1;stroke-dasharray:none"
       d="m 116.25735,312.33856 -3.388,1.98407 c 2.23016,2.54015 4.63468,4.91725 7.04287,7.28654 2.59481,2.54833 5.12299,5.16563 7.70424,7.72744 0.0723,0.0746 0.14712,0.14687 0.22045,0.22045 -1.4888,1.75264 -3.14864,3.37692 -4.78034,4.98919 -2.60059,2.56149 -5.15968,5.14893 -7.85507,7.61142 -0.6131,0.58597 -1.27781,1.1163 -1.93766,1.64759 l 3.26038,2.04209 c 0.62739,-0.56162 1.24693,-1.13528 1.83323,-1.74041 2.58125,-2.56181 5.10943,-5.16751 7.70424,-7.71585 2.40819,-2.36928 4.82432,-4.74638 7.05448,-7.28653 l -1.12547,-0.66136 c -0.41231,-0.33996 -0.81997,-0.68625 -1.20669,-1.05586 -2.69539,-2.46248 -5.26607,-5.06153 -7.86667,-7.62301 -2.36215,-2.33403 -4.77968,-4.67262 -6.65999,-7.42577 z"
       id="path3024-2"
       inkscape:connector-curvature="0" />
    <text
       xml:space="preserve"
       style="font-size:29.16591644px;font-style:normal;font-variant:normal;font-weight:normal;font-stretch:normal;text-align:start;line-height:125%;letter-spacing:0px;word-spacing:0px;writing-mode:lr-tb;text-anchor:start;fill:#000000;fill-opacity:1;stroke:none;font-family:Telegrafico;-inkscape-font-specification:Telegrafico"
       x="139.34589"
       y="337.09341"
       id="text3817-2"
       sodipodi:linespacing="125%"><tspan
         sodipodi:role="line"
         id="tspan3819-8"
         x="139.34589"
         y="337.09341">Personal</tspan></text>
    <path
       style="fill:#008000;fill-opacity:1;fill-rule:nonzero;stroke:#666666;stroke-width:0.33415967;stroke-linecap:round;stroke-linejoin:round;stroke-miterlimit:4;stroke-opacity:1;stroke-dasharray:none"
       d="m 286.97314,312.84365 -3.38801,1.98407 c 2.23017,2.54015 4.63469,4.91725 7.04288,7.28654 2.59481,2.54833 5.12299,5.16563 7.70424,7.72744 0.0723,0.0746 0.14711,0.14687 0.22045,0.22045 -1.4888,1.75264 -3.14864,3.37692 -4.78034,4.98919 -2.60059,2.56149 -5.15968,5.14893 -7.85507,7.61142 -0.61311,0.58597 -1.27782,1.1163 -1.93766,1.64759 l 3.26037,2.04209 c 0.6274,-0.56162 1.24693,-1.13528 1.83324,-1.74041 2.58125,-2.56181 5.10943,-5.16751 7.70424,-7.71585 2.40819,-2.36928 4.82431,-4.74638 7.05448,-7.28653 l -1.12547,-0.66136 c -0.41232,-0.33996 -0.81997,-0.68625 -1.20669,-1.05586 -2.69539,-2.46248 -5.26608,-5.06153 -7.86667,-7.62301 -2.36215,-2.33403 -4.77968,-4.67262 -6.65999,-7.42577 z"
       id="path3024-9"
       inkscape:connector-curvature="0" />
    <text
       xml:space="preserve"
       style="font-size:29.16591644px;font-style:normal;font-variant:normal;font-weight:normal;font-stretch:normal;text-align:start;line-height:125%;letter-spacing:0px;word-spacing:0px;writing-mode:lr-tb;text-anchor:start;fill:#000000;fill-opacity:1;stroke:none;font-family:Telegrafico;-inkscape-font-specification:Telegrafico"
       x="311.07184"
       y="337.09341"
       id="text3817-7"
       sodipodi:linespacing="125%"><tspan
         sodipodi:role="line"
         id="tspan3819-3"
         x="311.07184"
         y="337.09341">Trabajos Practicos</tspan></text>
  </g>
</svg>
